<?xml version="1.0" encoding="UTF-8" standalone="no"?>
<!-- Generated by Pixelmator Pro 3.6.18 -->
<svg
   width="1024"
   height="1024"
   viewBox="0 0 1024 1024"
   version="1.1"
   id="svg1"
   xmlns="http://www.w3.org/2000/svg"
   xmlns:svg="http://www.w3.org/2000/svg">
   <path
       style="baseline-shift:baseline;display:inline;overflow:visible;vector-effect:none;fill:#ffffff;enable-background:accumulate;stop-color:#000000;stop-opacity:1;opacity:1"
       d="m 466.08984,360.96875 c -24.10344,0.18624 -41.68891,1.77398 -59.0664,11.50586 -14.48023,8.10932 -26.43951,20.0686 -34.54883,34.54883 C 359.49879,430.19342 361,453.7326 361,492.59961 v 38.80078 c 0,38.86707 -1.50119,62.40621 11.47461,85.57617 8.10932,14.48023 20.0686,26.43951 34.54883,34.54883 C 430.19343,664.50123 453.73254,663 492.59961,663 h 38.80078 c 38.86701,0 62.40618,1.50126 85.57617,-11.47461 14.48023,-8.10932 26.43951,-20.0686 34.54883,-34.54883 C 664.50125,593.80659 663,570.26746 663,531.40039 v -38.80078 c 0,-38.86701 1.50126,-62.40618 -11.47461,-85.57617 -8.10932,-14.48023 -20.0686,-26.43951 -34.54883,-34.54883 C 593.80657,359.49874 570.2674,361 531.40039,361 h -38.80078 c -9.71677,0 -18.47528,-0.0933 -26.50977,-0.0312 z M 492.59961,413 h 38.80078 c 38.86701,0 54.19563,1.50102 60.16797,4.8457 6.11596,3.42511 11.16083,8.46998 14.58594,14.58594 3.34468,5.97234 4.8457,21.30096 4.8457,60.16797 v 38.80078 c 0,38.86707 -1.501,54.1956 -4.8457,60.16797 -3.42511,6.11596 -8.46998,11.16083 -14.58594,14.58594 C 585.59602,609.49898 570.2674,611 531.40039,611 h -38.80078 c -38.86707,0 -54.19556,-1.50099 -60.16797,-4.8457 -6.11596,-3.42511 -11.16083,-8.46997 -14.58594,-14.58594 C 414.50101,585.59598 413,570.26746 413,531.40039 v -38.80078 c 0,-38.86701 1.50103,-54.19562 4.8457,-60.16797 3.42511,-6.11597 8.46998,-11.16083 14.58594,-14.58594 5.97241,-3.34471 21.3009,-4.8457 60.16797,-4.8457 z"
       id="UTM Ring Three"/>
</svg>
