<?xml version="1.0" encoding="UTF-8" standalone="no"?>
<!-- Generated by Pixelmator Pro 3.6.18 -->
<svg
   width="1024"
   height="1024"
   viewBox="0 0 1024 1024"
   version="1.1"
   id="svg1"
   xmlns="http://www.w3.org/2000/svg"
   xmlns:svg="http://www.w3.org/2000/svg">
   <path
       style="baseline-shift:baseline;display:inline;overflow:visible;vector-effect:none;fill:#ffffff;enable-background:accumulate;stop-color:#000000;stop-opacity:1;opacity:1"
       d="m 476.75,261.25 c -69.83923,0 -108.86509,-1.50002 -143.64648,17.97852 -22.6866,12.70505 -41.41996,31.43848 -54.125,54.125 C 259.49997,368.13489 261,407.16077 261,477 v 70.5 c 0,69.83923 -1.50003,108.86511 17.97852,143.64648 12.70504,22.68652 31.4384,41.41995 54.125,54.125 C 367.88491,764.75002 406.91077,763.25 476.75,763.25 h 70.5 c 69.83923,0 108.86511,1.50003 143.64648,-17.97852 22.68658,-12.70504 41.41996,-31.43842 54.125,-54.125 C 764.50003,656.36511 763,617.33923 763,547.5 V 477 c 0,-69.83923 1.50003,-108.86511 -17.97852,-143.64648 -12.70504,-22.68658 -31.43842,-41.41996 -54.125,-54.125 C 656.11511,259.74997 617.08923,261.25 547.25,261.25 Z m 0,52 h 70.5 c 69.83923,0 100.65259,1.50027 118.23633,11.34766 14.32221,8.02079 26.14522,19.8438 34.16601,34.16601 C 709.49973,376.34741 711,407.16077 711,477 v 70.5 c 0,69.83923 -1.50027,100.65259 -11.34766,118.23633 -8.02079,14.32221 -19.8438,26.14522 -34.16601,34.16601 C 647.90259,709.74973 617.08923,711.25 547.25,711.25 h -70.5 c -69.83923,0 -100.65255,-1.50026 -118.23633,-11.34766 h -0.002 C 344.18953,691.88156 332.3685,680.0586 324.34766,665.73633 314.50027,648.15259 313,617.33923 313,547.5 V 477 c 0,-69.83923 1.50027,-100.65259 11.34766,-118.23633 8.02084,-14.32227 19.84187,-26.14523 34.16406,-34.16601 h 0.002 C 376.09745,314.75026 406.91077,313.25 476.75,313.25 Z"
       id="UTM Ring Two"/>
</svg>
