<?xml version="1.0" encoding="UTF-8" standalone="no"?>
<!-- Generated by Pixelmator Pro 3.6.18 -->
<svg
   width="1024"
   height="1024"
   viewBox="0 0 1024 1024"
   version="1.1"
   id="svg1"
   xmlns="http://www.w3.org/2000/svg"
   xmlns:svg="http://www.w3.org/2000/svg">
   <path
       style="baseline-shift:baseline;display:inline;overflow:visible;vector-effect:none;fill:#ffffff;enable-background:accumulate;stop-color:#000000;stop-opacity:1;opacity:1"
       d="M 461.25,155 C 358.0094,155 302.28398,153.49902 254.98047,179.99023 223.444,197.6515 197.40149,223.69404 179.74023,255.23047 153.249,302.53398 154.75,358.2594 154.75,461.5 V 563 c 0,103.2406 -1.501,158.96602 24.99023,206.26953 17.66127,31.53642 43.70379,57.57897 75.24024,75.24024 C 302.28398,871.00098 358.0094,869.5 461.25,869.5 h 101.5 c 103.2406,0 158.96602,1.50098 206.26953,-24.99023 31.53638,-17.6613 57.57897,-43.70378 75.24024,-75.24024 C 870.75098,721.96602 869.25,666.2406 869.25,563 V 461.5 c 0,-103.2406 1.50098,-158.96602 -24.99023,-206.26953 -17.66126,-31.53644 -43.7038,-57.57898 -75.24024,-75.24024 C 721.71602,153.49902 665.9906,155 562.75,155 Z m 0,52 h 101.5 c 103.2406,0 150.75542,1.50122 180.86133,18.36133 23.17217,12.97704 42.3003,32.10517 55.27734,55.27734 C 815.74878,310.74458 817.25,358.2594 817.25,461.5 V 563 c 0,103.2406 -1.50122,150.75542 -18.36133,180.86133 -12.97704,23.17216 -32.10511,42.30021 -55.27734,55.27734 C 713.50542,815.99878 665.9906,817.5 562.75,817.5 H 461.25 C 358.0094,817.5 310.49458,815.99878 280.38867,799.13867 257.2165,786.16163 238.0884,767.03353 225.11133,743.86133 208.25121,713.75542 206.75,666.2406 206.75,563 V 461.5 c 0,-103.2406 1.50121,-150.75542 18.36133,-180.86133 12.97705,-23.17219 32.10516,-42.3003 55.27734,-55.27734 C 310.49458,208.50122 358.0094,207 461.25,207 Z"
       id="UTM Ring One"/>
</svg>
